<svg width="512" height="512" viewBox="0 0 512 512" fill="none" xmlns="http://www.w3.org/2000/svg">
  <defs>
    <linearGradient id="app-bg" x1="104" y1="42" x2="422" y2="462" gradientUnits="userSpaceOnUse">
      <stop offset="0" stop-color="#194669"/>
      <stop offset="0.58" stop-color="#0E2C44"/>
      <stop offset="1" stop-color="#071A2B"/>
    </linearGradient>
    <linearGradient id="cassette-body" x1="108" y1="140" x2="405" y2="390" gradientUnits="userSpaceOnUse">
      <stop offset="0" stop-color="#233F58"/>
      <stop offset="1" stop-color="#0B2337"/>
    </linearGradient>
    <linearGradient id="label" x1="142" y1="154" x2="370" y2="263" gradientUnits="userSpaceOnUse">
      <stop offset="0" stop-color="#FFF8E9"/>
      <stop offset="1" stop-color="#F4E7D1"/>
    </linearGradient>
    <linearGradient id="reel" x1="174" y1="205" x2="337" y2="294" gradientUnits="userSpaceOnUse">
      <stop offset="0" stop-color="#061A2B"/>
      <stop offset="1" stop-color="#123652"/>
    </linearGradient>
    <linearGradient id="tape" x1="220" y1="221" x2="292" y2="266" gradientUnits="userSpaceOnUse">
      <stop offset="0" stop-color="#6D3B25"/>
      <stop offset="0.52" stop-color="#B26B44"/>
      <stop offset="1" stop-color="#6F3B25"/>
    </linearGradient>
    <filter id="shadow" x="56" y="62" width="418" height="420" filterUnits="userSpaceOnUse" color-interpolation-filters="sRGB">
      <feDropShadow dx="0" dy="20" stdDeviation="20" flood-color="#03111C" flood-opacity="0.55"/>
    </filter>
    <filter id="soft" x="0" y="0" width="512" height="512" filterUnits="userSpaceOnUse" color-interpolation-filters="sRGB">
      <feDropShadow dx="0" dy="10" stdDeviation="14" flood-color="#00101E" flood-opacity="0.36"/>
    </filter>
  </defs>

  <rect x="38" y="38" width="436" height="436" rx="104" fill="url(#app-bg)" filter="url(#soft)"/>
  <path d="M364 93C409 117 442 153 474 199V370C474 428 428 474 370 474H238L104 340L364 93Z" fill="#041321" opacity="0.28"/>

  <g filter="url(#shadow)">
    <rect x="104" y="142" width="304" height="214" rx="34" fill="url(#cassette-body)" stroke="#3F5E77" stroke-width="5"/>
    <rect x="124" y="170" width="264" height="120" rx="21" fill="url(#label)"/>
    <path d="M124 223H388V250H124V223Z" fill="#FFBA64"/>
    <path d="M124 250H388V279C124 280 124 278 124 278V250Z" fill="#E85B47"/>

    <rect x="168" y="211" width="176" height="80" rx="40" fill="url(#reel)" stroke="#0A1D2E" stroke-width="7"/>
    <rect x="224" y="221" width="64" height="60" rx="10" fill="url(#tape)"/>
    <path d="M254 223C242 238 239 263 253 281H270C258 262 260 238 273 223H254Z" fill="#D49A70" opacity="0.42"/>

    <circle cx="193" cy="251" r="34" fill="#FFF6E5" stroke="#12324C" stroke-width="11"/>
    <circle cx="319" cy="251" r="34" fill="#FFF6E5" stroke="#12324C" stroke-width="11"/>
    <path d="M193 225L200 236L213 236L207 248L213 260L200 260L193 272L186 260L173 260L179 248L173 236L186 236L193 225Z" fill="#061A2B"/>
    <path d="M319 225L326 236L339 236L333 248L339 260L326 260L319 272L312 260L299 260L305 248L299 236L312 236L319 225Z" fill="#061A2B"/>

    <path d="M168 336L192 298H320L344 336H168Z" fill="#18344D" stroke="#496980" stroke-width="5"/>
    <circle cx="136" cy="316" r="11" fill="#FFF7E8"/>
    <circle cx="376" cy="316" r="11" fill="#FFF7E8"/>
    <circle cx="206" cy="336" r="12" fill="#051524"/>
    <circle cx="254" cy="336" r="12" fill="#051524"/>
    <circle cx="307" cy="336" r="12" fill="#051524"/>
    <circle cx="350" cy="336" r="12" fill="#051524"/>
  </g>

  <circle cx="122" cy="158" r="5" fill="#FFF7E8" opacity="0.88"/>
  <circle cx="390" cy="158" r="5" fill="#FFF7E8" opacity="0.88"/>
</svg>
